<svg width="25" height="25" viewBox="0 0 25 25" fill="none" xmlns="http://www.w3.org/2000/svg">
<path d="M16.9524 4.85715H18.9524C19.4828 4.85715 19.9915 5.06786 20.3666 5.44293C20.7417 5.81801 20.9524 6.32671 20.9524 6.85715V20.8571C20.9524 21.3876 20.7417 21.8963 20.3666 22.2714C19.9915 22.6464 19.4828 22.8571 18.9524 22.8571H6.95239C6.42196 22.8571 5.91325 22.6464 5.53818 22.2714C5.16311 21.8963 4.95239 21.3876 4.95239 20.8571V6.85715C4.95239 6.32671 5.16311 5.81801 5.53818 5.44293C5.91325 5.06786 6.42196 4.85715 6.95239 4.85715H8.95239" stroke="black" stroke-width="2" stroke-linecap="round" stroke-linejoin="round"/>
<path d="M15.9524 2.85715H9.95239C9.40011 2.85715 8.95239 3.30486 8.95239 3.85715V5.85715C8.95239 6.40943 9.40011 6.85715 9.95239 6.85715H15.9524C16.5047 6.85715 16.9524 6.40943 16.9524 5.85715V3.85715C16.9524 3.30486 16.5047 2.85715 15.9524 2.85715Z" stroke="black" stroke-width="2" stroke-linecap="round" stroke-linejoin="round"/>
</svg>
