<svg width="25" height="25" viewBox="0 0 25 25" fill="none" xmlns="http://www.w3.org/2000/svg">
<path d="M20.4783 9.69568H11.4783C10.3737 9.69568 9.47827 10.5911 9.47827 11.6957V20.6957C9.47827 21.8002 10.3737 22.6957 11.4783 22.6957H20.4783C21.5828 22.6957 22.4783 21.8002 22.4783 20.6957V11.6957C22.4783 10.5911 21.5828 9.69568 20.4783 9.69568Z" stroke="black" stroke-width="2" stroke-linecap="round" stroke-linejoin="round"/>
<path d="M5.47827 15.6957H4.47827C3.94784 15.6957 3.43913 15.485 3.06406 15.1099C2.68899 14.7348 2.47827 14.2261 2.47827 13.6957V4.69568C2.47827 4.16525 2.68899 3.65654 3.06406 3.28147C3.43913 2.90639 3.94784 2.69568 4.47827 2.69568H13.4783C14.0087 2.69568 14.5174 2.90639 14.8925 3.28147C15.2676 3.65654 15.4783 4.16525 15.4783 4.69568V5.69568" stroke="black" stroke-width="2" stroke-linecap="round" stroke-linejoin="round"/>
</svg>
