<svg width="25" height="25" viewBox="0 0 25 25" fill="none" xmlns="http://www.w3.org/2000/svg">
<path d="M17.4783 3.82611C17.7409 3.56346 18.0527 3.35512 18.3959 3.21298C18.739 3.07084 19.1068 2.99768 19.4783 2.99768C19.8497 2.99768 20.2175 3.07084 20.5607 3.21298C20.9038 3.35512 21.2156 3.56346 21.4783 3.82611C21.7409 4.08875 21.9493 4.40055 22.0914 4.74372C22.2335 5.08688 22.3067 5.45467 22.3067 5.82611C22.3067 6.19754 22.2335 6.56534 22.0914 6.9085C21.9493 7.25166 21.7409 7.56346 21.4783 7.82611L7.97827 21.3261L2.47827 22.8261L3.97827 17.3261L17.4783 3.82611Z" stroke="black" stroke-width="2" stroke-linecap="round" stroke-linejoin="round"/>
</svg>
