<svg width="31" height="31" viewBox="0 0 31 31" fill="none" xmlns="http://www.w3.org/2000/svg">
<path d="M10.428 3.04999C6.56904 3.04999 3.42999 6.19194 3.42999 10.0519V20.0519C3.42999 23.9109 6.57195 27.05 10.4319 27.05H20.4319C24.2909 27.05 27.43 23.908 27.43 20.048V10.048C27.43 6.18903 24.288 3.04999 20.428 3.04999H10.428ZM22.43 7.04999C22.982 7.04999 23.43 7.49799 23.43 8.04999C23.43 8.60199 22.982 9.04999 22.43 9.04999C21.878 9.04999 21.43 8.60199 21.43 8.04999C21.43 7.49799 21.878 7.04999 22.43 7.04999ZM15.43 9.04999C18.739 9.04999 21.43 11.741 21.43 15.05C21.43 18.359 18.739 21.05 15.43 21.05C12.121 21.05 9.42999 18.359 9.42999 15.05C9.42999 11.741 12.121 9.04999 15.43 9.04999ZM15.43 11.05C14.3691 11.05 13.3517 11.4714 12.6016 12.2216C11.8514 12.9717 11.43 13.9891 11.43 15.05C11.43 16.1109 11.8514 17.1283 12.6016 17.8784C13.3517 18.6286 14.3691 19.05 15.43 19.05C16.4909 19.05 17.5083 18.6286 18.2584 17.8784C19.0086 17.1283 19.43 16.1109 19.43 15.05C19.43 13.9891 19.0086 12.9717 18.2584 12.2216C17.5083 11.4714 16.4909 11.05 15.43 11.05Z" fill="#EFEFEF"/>
</svg>
