<svg width="24" height="24" viewBox="0 0 24 24" fill="none" xmlns="http://www.w3.org/2000/svg">
<g clip-path="url(#clip0_906_11)">
<path fill-rule="evenodd" clip-rule="evenodd" d="M2 11.595C2 6.29582 6.29582 2 11.595 2C16.8942 2 21.19 6.29582 21.19 11.595C21.19 16.8942 16.8942 21.19 11.595 21.19C6.29582 21.19 2 16.8942 2 11.595ZM3.64914 11.595C3.64914 7.20663 7.20663 3.64914 11.595 3.64914C15.9834 3.64914 19.5409 7.20663 19.5409 11.595C19.5409 15.9834 15.9834 19.5409 11.595 19.5409C7.20663 19.5409 3.64914 15.9834 3.64914 11.595ZM11.6138 5.18584C8.0637 5.18584 5.18584 8.0637 5.18584 11.6138C5.18584 15.1638 8.0637 18.0416 11.6138 18.0416C15.1638 18.0416 18.0416 15.1638 18.0416 11.6138C18.0416 8.0637 15.1638 5.18584 11.6138 5.18584ZM11.6325 6.7975C8.96219 6.7975 6.7975 8.96219 6.7975 11.6325C6.7975 14.3028 8.96219 16.4675 11.6325 16.4675C14.3028 16.4675 16.4675 14.3028 16.4675 11.6325C16.4675 8.96219 14.3028 6.7975 11.6325 6.7975ZM8.3342 11.595C8.3342 9.79412 9.79412 8.3342 11.595 8.3342C13.3959 8.3342 14.8558 9.79412 14.8558 11.595C14.8558 13.3959 13.3959 14.8558 11.595 14.8558C9.79412 14.8558 8.3342 13.3959 8.3342 11.595Z" fill="#4D62E5"/>
</g>
<defs>
<clipPath id="clip0_906_11">
<rect width="19.19" height="19.19" fill="white" transform="translate(2 2)"/>
</clipPath>
</defs>
</svg>
