<svg width="31" height="31" viewBox="0 0 31 31" fill="none" xmlns="http://www.w3.org/2000/svg">
<path d="M25.5843 4.03436C25.2592 4.0487 24.9564 4.14339 24.6898 4.25116C24.44 4.35162 23.4858 4.7609 21.9827 5.40546C20.4784 6.05058 18.4865 6.90577 16.3616 7.81952C12.112 9.64702 7.3342 11.7042 4.88702 12.757C4.795 12.7966 4.47391 12.8992 4.13312 13.1652C3.79232 13.4313 3.42999 13.9826 3.42999 14.5969C3.42999 15.0922 3.66606 15.5843 3.9632 15.8781C4.26033 16.1719 4.57474 16.3171 4.84406 16.4269C5.82122 16.8257 8.85184 18.0658 9.42413 18.3C9.62554 18.917 10.7225 22.2725 10.9769 23.0949C11.1446 23.6376 11.3042 23.9775 11.512 24.2473C11.6159 24.3821 11.7367 24.5003 11.8831 24.593C11.9416 24.63 12.0058 24.6585 12.0706 24.6848L12.0745 24.6867C12.0895 24.6927 12.1023 24.7029 12.1175 24.7082C12.1461 24.7182 12.1652 24.7194 12.2034 24.7277C12.3558 24.7769 12.5095 24.8078 12.6468 24.8078C13.232 24.8078 13.5901 24.4855 13.5901 24.4855L13.6116 24.4699L16.6214 21.8664L20.2718 25.3195C20.3232 25.3922 20.8025 26.05 21.8597 26.05C22.4874 26.05 22.9853 25.735 23.305 25.3996C23.6247 25.0642 23.8238 24.7118 23.9085 24.2687V24.2668C23.9877 23.8481 27.3519 6.57733 27.3519 6.57733L27.346 6.60077C27.4445 6.15126 27.4703 5.73263 27.3616 5.31952C27.253 4.90641 26.9666 4.51088 26.6116 4.29803C26.2567 4.08524 25.9093 4.02002 25.5843 4.03436ZM25.3968 6.12421C25.392 6.15339 25.4004 6.13872 25.3929 6.17303L25.3909 6.18475L25.389 6.19647C25.389 6.19647 22.0665 23.2464 21.9437 23.8957C21.9527 23.8467 21.9116 23.9442 21.8694 24.0031C21.8099 23.9621 21.6878 23.9094 21.6878 23.9094L21.6683 23.8879L16.6819 19.1711L13.1566 22.218L14.2054 18.0187C14.2054 18.0187 20.7616 11.2321 21.1566 10.8371C21.4746 10.5211 21.5413 10.4109 21.5413 10.3019C21.5413 10.1559 21.4652 10.05 21.2952 10.05C21.1422 10.05 20.9365 10.1987 20.8265 10.2687C19.3934 11.1823 13.1018 14.8491 10.2816 16.4894C9.83337 16.306 6.71966 15.0315 5.66437 14.6008C5.67236 14.5973 5.66973 14.5985 5.67804 14.5949C8.12586 13.5418 12.9016 11.4847 17.1507 9.65741C19.2752 8.74379 21.2687 7.88795 22.7718 7.24335C24.2518 6.60867 25.2801 6.17188 25.3968 6.12421Z" fill="#EFEFEF"/>
</svg>
